<svg width="15" height="20" viewBox="0 0 15 20" fill="none" xmlns="http://www.w3.org/2000/svg">
<path d="M6.54801 20C11.244 20 14.167 16.5392 14.167 12.0742C14.167 10.3908 13.893 8.87083 11.982 8.41417C12.447 7.14083 13.788 3.4575 13.788 2.2775C13.788 1.23833 13.163 0.3675 12.049 0.3675C10.273 0.3675 8.682 5.51167 8.183 6.73833C7.798 5.625 5.991 0 4.398 0C3.161 0 2.58001 0.894167 2.58001 2.01917C2.58001 3.39833 3.94101 6.9725 4.43401 8.3475C4.18401 8.2575 3.913 8.17917 3.638 8.17917C2.706 8.17917 1.715 9.31583 1.715 10.2342C1.715 10.5817 1.91001 11.07 2.03301 11.3942C0.565009 11.785 4.40107e-06 12.7458 4.40107e-06 14.195C-0.0039956 17.015 2.71901 20 6.54801 20ZM10.573 4.21917C10.733 3.73833 11.413 1.7075 12.049 1.7075C12.392 1.7075 12.483 2.055 12.483 2.3325C12.483 3.07833 10.948 7.2 10.608 8.11333L9.25501 7.87917L10.573 4.21917ZM3.83001 1.8875V1.88667C3.83001 1.42167 4.40801 0.101667 5.67301 3.72667L7.05001 7.645C6.42901 7.59417 5.948 7.5275 5.642 7.7C5.208 6.575 3.83001 3.02417 3.83001 1.8875ZM3.73801 9.53083L3.739 9.53167C4.905 9.53167 6.41001 13.2267 6.41001 13.7267C6.41001 13.9258 6.21501 14.1717 5.98801 14.1717C5.15601 14.1717 2.92701 11.1675 2.92701 10.355C2.93001 10.0542 3.43201 9.53083 3.73801 9.53083ZM2.398 12.5892C2.852 12.5892 4.55901 14.945 4.55901 15.445C4.55901 15.6367 4.253 15.7692 4.094 15.7692C3.453 15.7692 3.20301 15.1633 2.06101 13.7617C0.878009 14.9217 2.87701 17.1558 4.38201 17.1558C5.42001 17.1558 6.097 16.2108 5.894 15.515C6.042 15.515 6.224 15.5267 6.36 15.4917C6.40401 16.55 6.72301 17.8117 8.02001 17.9017C8.02001 17.8667 8.10001 17.6242 8.10001 17.6125C8.10001 16.9325 7.678 16.3392 7.678 15.6475C7.678 14.5417 8.542 13.4717 9.418 12.8467C9.736 12.6125 10.123 12.4675 10.496 12.335C10.883 12.1908 11.293 12.0225 11.586 11.7333C11.542 11.2958 11.359 10.9092 10.913 10.9092C9.811 10.9092 6.11301 11.0658 6.11301 9.35833C6.11301 9.09667 6.11801 8.84667 6.80701 8.84667C8.09301 8.84667 11.357 9.15917 12.312 9.98333C13.032 10.6125 13.279 14.405 11.078 16.8075L11.075 16.8083C9.917 18.0583 8.436 18.7067 6.708 18.7067C4.344 18.7067 2.47701 17.4333 1.57801 15.2575C0.897007 13.5625 1.729 12.5892 2.398 12.5892ZM7.14901 11.8858C7.53701 12.0075 7.934 12.0433 8.333 12.1208C8.038 12.3317 7.77601 12.59 7.52401 12.8667C7.41301 12.535 7.27701 12.2108 7.14901 11.8858Z" fill="#505F79"/>
</svg>
