<svg width="18" height="20" viewBox="0 0 18 20" fill="none" xmlns="http://www.w3.org/2000/svg">
<path d="M17.985 7.46114C17.985 6.32124 17.619 5.25043 16.921 4.31779C17.187 3.41969 17.253 2.27979 17.187 0.967185C17.153 0.414508 16.721 0 16.189 0C15.889 0 13.36 0.0345423 11.896 1.38169C10.632 1.1399 9.301 1.1399 8.004 1.38169C6.573 0.0345423 4.044 0 3.712 0C3.179 0 2.747 0.414508 2.713 0.967185C2.614 2.27979 2.71301 3.41969 2.98001 4.31779C2.28101 5.28497 1.915 6.35579 1.915 7.46114C1.915 9.8791 3.71201 12.0553 6.44001 13.0915C6.34001 13.2988 6.274 13.5406 6.207 13.7824C3.312 13.4715 1.94801 10.7427 1.88201 10.639C1.64901 10.1209 1.05001 9.91364 0.551006 10.19C0.0520061 10.4318 -0.148 11.0535 0.118 11.5717C0.185 11.7444 2.015 15.4404 6.041 15.8549V18.9637C6.041 19.5509 6.473 20 7.039 20H12.861C13.427 20 13.86 19.5509 13.86 18.9637V14.8532C13.86 14.2314 13.726 13.6442 13.494 13.1261C16.189 12.0553 17.985 9.91364 17.985 7.46114Z" fill="#505F79"/>
</svg>
