<svg width="20" height="16" viewBox="0 0 20 16" fill="none" xmlns="http://www.w3.org/2000/svg">
<path d="M18.4042 1.88042L20 0.33768V0H14.4717L10.5317 9.9099L6.0492 0H0.252502V0.33768L2.1167 2.60547C2.2983 2.77305 2.3933 3.01811 2.3692 3.26484V12.1768C2.4267 12.4977 2.3233 12.8278 2.1 13.0611L0 15.6328V15.9663H5.9542V15.6286L3.8542 13.0611C3.6267 12.8269 3.5192 12.5027 3.565 12.1768V4.46821L8.7917 15.9705H9.3992L13.8933 4.46821V13.6312C13.8933 13.8728 13.8933 13.9225 13.7367 14.0808L12.12 15.6615V16H19.9633V15.6623L18.405 14.1204C18.2683 14.016 18.1975 13.8408 18.2267 13.6707V2.33011C18.1975 2.15916 18.2675 1.984 18.4042 1.88042Z" fill="#505F79"/>
</svg>
