<svg width="375" height="718" viewBox="0 0 375 718" fill="none" xmlns="http://www.w3.org/2000/svg">
<g clip-path="url(#clip0_1_2)">
<path d="M0 0H375V718H80C35.8172 718 0 682.183 0 638V0Z" fill="white"/>
<path d="M147.227 168.864L127.185 151.585L130.276 148L150.318 165.279L147.227 168.864Z" fill="#6070FF"/>
<path d="M128.312 166.222C130.142 168.647 133.412 169.265 135.616 167.602C137.821 165.939 138.125 162.625 136.296 160.2C134.466 157.775 131.196 157.157 128.992 158.82C126.787 160.483 126.483 163.797 128.312 166.222Z" fill="#CBCDFF"/>
<path d="M254.317 679.966L191.824 653L187 664.18L249.493 691.146L254.317 679.966Z" fill="#EBEBFF"/>
<path d="M247 677.096C252.523 677.096 257 672.619 257 667.096C257 661.573 252.523 657.096 247 657.096C241.477 657.096 237 661.573 237 667.096C237 672.619 241.477 677.096 247 677.096Z" fill="#6070FF"/>
<path d="M334.907 569.499C336.426 567.689 337.498 565.547 338.036 563.246C338.573 560.945 338.562 558.549 338.001 556.254C337.441 553.958 336.348 551.826 334.81 550.032C333.273 548.237 331.335 546.829 329.152 545.923C326.97 545.017 324.604 544.637 322.248 544.815C319.891 544.993 317.61 545.723 315.588 546.947C313.566 548.171 311.861 549.853 310.611 551.858C309.36 553.864 308.6 556.135 308.39 558.489L314.841 559.063C314.96 557.722 315.393 556.428 316.106 555.285C316.818 554.143 317.79 553.184 318.941 552.487C320.093 551.79 321.393 551.374 322.735 551.273C324.078 551.171 325.425 551.388 326.669 551.904C327.912 552.42 329.016 553.222 329.892 554.244C330.768 555.267 331.391 556.481 331.71 557.789C332.029 559.097 332.036 560.462 331.73 561.773C331.423 563.084 330.813 564.304 329.947 565.335L334.907 569.499Z" fill="#EBEBFF"/>
<path d="M318.497 533C318.278 536.194 319.337 539.344 321.441 541.757C323.545 544.17 326.521 545.649 329.715 545.867C332.909 546.086 336.059 545.027 338.472 542.923C340.885 540.82 342.364 537.843 342.583 534.649L318.497 533Z" fill="#6070FF"/>
<path d="M2.02268 104L-34 141.487L-27.2937 147.931L8.729 110.444L2.02268 104Z" fill="#EBEBFF"/>
<path d="M-11.8095 128.642C-13.8144 133.338 -13.8718 138.638 -11.969 143.376C-10.0663 148.114 -6.35924 151.902 -1.66346 153.907C3.03231 155.912 8.3322 155.969 13.0703 154.066C17.8084 152.164 21.5965 148.457 23.6014 143.761L-11.8095 128.642Z" fill="#6070FF"/>
<path d="M221.5 124.5C225.366 124.5 228.5 121.366 228.5 117.5C228.5 113.634 225.366 110.5 221.5 110.5C217.634 110.5 214.5 113.634 214.5 117.5C214.5 121.366 217.634 124.5 221.5 124.5Z" fill="white" stroke="#CBCDFF"/>
<path d="M303.5 325.5C306.261 325.5 308.5 323.261 308.5 320.5C308.5 317.739 306.261 315.5 303.5 315.5C300.739 315.5 298.5 317.739 298.5 320.5C298.5 323.261 300.739 325.5 303.5 325.5Z" fill="white" stroke="#CBCDFF"/>
<path d="M60.5 659.5C64.366 659.5 67.5 656.366 67.5 652.5C67.5 648.634 64.366 645.5 60.5 645.5C56.634 645.5 53.5 648.634 53.5 652.5C53.5 656.366 56.634 659.5 60.5 659.5Z" fill="white" stroke="#CBCDFF"/>
<path d="M421.241 178.97C417.195 171.788 411.514 165.659 404.659 161.08C397.803 156.502 389.966 153.602 381.782 152.615C373.597 151.629 365.295 152.584 357.548 155.403C349.802 158.222 342.827 162.825 337.191 168.841C331.554 174.856 327.413 182.115 325.103 190.028C322.793 197.942 322.379 206.288 323.895 214.391C325.411 222.494 328.813 230.127 333.828 236.67C338.842 243.214 345.326 248.485 352.756 252.056L362.543 231.695C358.31 229.661 354.616 226.658 351.759 222.93C348.903 219.202 346.964 214.854 346.101 210.238C345.237 205.621 345.473 200.866 346.789 196.358C348.105 191.85 350.464 187.714 353.675 184.287C356.886 180.86 360.86 178.238 365.273 176.632C369.686 175.026 374.416 174.482 379.079 175.044C383.741 175.606 388.206 177.258 392.112 179.866C396.017 182.475 399.254 185.966 401.559 190.058L421.241 178.97Z" fill="#6070FF"/>
<path d="M376.775 118L294 165.79L305.011 184.861L387.786 137.071L376.775 118Z" fill="#EBEBFF"/>
</g>
<defs>
<clipPath id="clip0_1_2">
<rect width="375" height="718" fill="white"/>
</clipPath>
</defs>
</svg>
