<svg width="68" height="12" viewBox="0 0 68 12" fill="none" xmlns="http://www.w3.org/2000/svg">
<g clip-path="url(#clip0_1_4)">
<path opacity="0.35" d="M62.3333 0.833252H45.6667C44.4701 0.833252 43.5 1.8033 43.5 2.99992V8.99988C43.5 10.1965 44.4701 11.1666 45.6667 11.1666H62.3333C63.5299 11.1666 64.5 10.1965 64.5 8.99988V2.99992C64.5 1.8033 63.5299 0.833252 62.3333 0.833252Z" stroke="black"/>
<path opacity="0.4" d="M66 3.99988V7.99988C66.8047 7.6611 67.328 6.87301 67.328 5.99988C67.328 5.12674 66.8047 4.33865 66 3.99988Z" fill="black"/>
<path d="M61.6667 2.33325H46.3333C45.597 2.33325 45 2.9302 45 3.66658V8.33325C45 9.06963 45.597 9.66658 46.3333 9.66658H61.6667C62.403 9.66658 63 9.06963 63 8.33325V3.66658C63 2.9302 62.403 2.33325 61.6667 2.33325Z" fill="black"/>
<path fill-rule="evenodd" clip-rule="evenodd" d="M30.33 2.60802C32.5459 2.60811 34.677 3.45955 36.283 4.98635C36.4039 5.10422 36.5972 5.10274 36.7163 4.98302L37.8723 3.81635C37.9326 3.75563 37.9662 3.67338 37.9657 3.58779C37.9652 3.50221 37.9306 3.42036 37.8696 3.36035C33.6545 -0.679199 27.0047 -0.679199 22.7896 3.36035C22.7286 3.42032 22.6939 3.50215 22.6934 3.58773C22.6928 3.67331 22.7264 3.75558 22.7866 3.81635L23.943 4.98302C24.062 5.10292 24.2554 5.10441 24.3763 4.98635C25.9825 3.45945 28.1139 2.60801 30.33 2.60802ZM30.33 6.40368C31.5475 6.40361 32.7215 6.85614 33.624 7.67335C33.746 7.78933 33.9383 7.78682 34.0573 7.66768L35.212 6.50102C35.2728 6.43982 35.3065 6.3568 35.3056 6.27054C35.3048 6.18427 35.2693 6.10196 35.2073 6.04202C32.4591 3.48563 28.2032 3.48563 25.455 6.04202C25.3929 6.10196 25.3575 6.18432 25.3567 6.27061C25.3558 6.3569 25.3897 6.43991 25.4506 6.50102L26.605 7.66768C26.724 7.78682 26.9162 7.78933 27.0383 7.67335C27.9402 6.85668 29.1133 6.40419 30.33 6.40368ZM32.643 8.9575C32.6447 9.04401 32.6107 9.12741 32.549 9.18802L30.5516 11.2037C30.4931 11.2629 30.4133 11.2963 30.33 11.2963C30.2467 11.2963 30.1668 11.2629 30.1083 11.2037L28.1106 9.18802C28.0489 9.12737 28.015 9.04394 28.0168 8.95743C28.0186 8.87092 28.0561 8.789 28.1203 8.73102C29.3959 7.65213 31.2641 7.65213 32.5396 8.73102C32.6038 8.78905 32.6412 8.87099 32.643 8.9575Z" fill="black"/>
<path fill-rule="evenodd" clip-rule="evenodd" d="M16.666 0.666748H15.666C15.1137 0.666748 14.666 1.11446 14.666 1.66675V10.3334C14.666 10.8857 15.1137 11.3334 15.666 11.3334H16.666C17.2183 11.3334 17.666 10.8857 17.666 10.3334V1.66675C17.666 1.11446 17.2183 0.666748 16.666 0.666748ZM10.9993 3.00008H11.9993C12.5516 3.00008 12.9993 3.4478 12.9993 4.00008V10.3334C12.9993 10.8857 12.5516 11.3334 11.9993 11.3334H10.9993C10.4471 11.3334 9.99935 10.8857 9.99935 10.3334V4.00008C9.99935 3.4478 10.4471 3.00008 10.9993 3.00008ZM7.33268 5.33341H6.33268C5.7804 5.33341 5.33268 5.78113 5.33268 6.33341V10.3334C5.33268 10.8857 5.7804 11.3334 6.33268 11.3334H7.33268C7.88497 11.3334 8.33268 10.8857 8.33268 10.3334V6.33341C8.33268 5.78113 7.88497 5.33341 7.33268 5.33341ZM2.66602 7.33341H1.66602C1.11373 7.33341 0.666016 7.78113 0.666016 8.33341V10.3334C0.666016 10.8857 1.11373 11.3334 1.66602 11.3334H2.66602C3.2183 11.3334 3.66602 10.8857 3.66602 10.3334V8.33341C3.66602 7.78113 3.2183 7.33341 2.66602 7.33341Z" fill="black"/>
</g>
<defs>
<clipPath id="clip0_1_4">
<rect width="68" height="12" fill="white"/>
</clipPath>
</defs>
</svg>
